HIERARCHY
ROOT Hips
{
    OFFSET   0.000000   0.000000   0.000000
    CHANNELS 6 Xposition Yposition Zposition Zrotation Xrotation Yrotation
    JOINT Chest
    {
        OFFSET   0.000000   8.007230   0.000000
        CHANNELS 3 Zrotation Xrotation Yrotation
        JOINT Chest2
        {
            OFFSET   0.000000  22.077100   0.000000
            CHANNELS 3 Zrotation Xrotation Yrotation
            JOINT Neck
            {
                OFFSET   0.000000  23.254800  -0.000021
                CHANNELS 3 Zrotation Xrotation Yrotation
                JOINT Head
                {
                    OFFSET   0.000000  14.370000   1.956610
                    CHANNELS 3 Zrotation Xrotation Yrotation
                    End Site
                    {
                        OFFSET   0.000000  19.566000   0.000000
                    }
                }
            }
            JOINT LeftCollar
            {
                OFFSET   3.911900  19.017000  -0.467063
                CHANNELS 3 Zrotation Xrotation Yrotation
                JOINT LeftShoulder
                {
                    OFFSET  10.383700   0.000000   0.000000
                    CHANNELS 3 Zrotation Xrotation Yrotation
                    JOINT LeftElbow
                    {
                        OFFSET  26.662100   0.001529   0.000325
                        CHANNELS 3 Zrotation Xrotation Yrotation
                        JOINT LeftWrist
                        {
                            OFFSET  28.869000  -0.000011  -0.000096
                            CHANNELS 3 Zrotation Xrotation Yrotation
                            JOINT LeftFinger0
                            {
                                OFFSET   2.044650  -2.323460   3.252850
                                CHANNELS 3 Zrotation Xrotation Yrotation
                                JOINT LeftFinger01
                                {
                                    OFFSET   3.088130   0.000000   0.000000
                                    CHANNELS 3 Zrotation Xrotation Yrotation
                                    JOINT LeftFinger02
                                    {
                                        OFFSET   2.639460   0.000000   0.000000
                                        CHANNELS 3 Zrotation Xrotation Yrotation
                                        End Site
                                        {
                                            OFFSET   2.582190   0.000000   0.000000
                                        }
                                    }
                                }
                            }
                            JOINT LeftFinger1
                            {
                                OFFSET   8.364480   0.000000   3.252850
                                CHANNELS 3 Zrotation Xrotation Yrotation
                                JOINT LeftFinger11
                                {
                                    OFFSET   4.646930   0.000000   0.000000
                                    CHANNELS 3 Zrotation Xrotation Yrotation
                                    JOINT LeftFinger12
                                    {
                                        OFFSET   2.323460   0.000000   0.000000
                                        CHANNELS 3 Zrotation Xrotation Yrotation
                                        End Site
                                        {
                                            OFFSET   2.273050   0.000000   0.000000
                                        }
                                    }
                                }
                            }
                            JOINT LeftFinger2
                            {
                                OFFSET   8.364480   0.000016   1.078090
                                CHANNELS 3 Zrotation Xrotation Yrotation
                                JOINT LeftFinger21
                                {
                                    OFFSET   5.111620   0.000000   0.000000
                                    CHANNELS 3 Zrotation Xrotation Yrotation
                                    JOINT LeftFinger22
                                    {
                                        OFFSET   2.788160   0.000017   0.000000
                                        CHANNELS 3 Zrotation Xrotation Yrotation
                                        End Site
                                        {
                                            OFFSET   2.727660   0.000000   0.000000
                                        }
                                    }
                                }
                            }
                            JOINT LeftFinger3
                            {
                                OFFSET   7.899780   0.000015  -1.078090
                                CHANNELS 3 Zrotation Xrotation Yrotation
                                JOINT LeftFinger31
                                {
                                    OFFSET   4.646920   0.000000   0.000000
                                    CHANNELS 3 Zrotation Xrotation Yrotation
                                    JOINT LeftFinger32
                                    {
                                        OFFSET   2.323470   0.000000   0.000000
                                        CHANNELS 3 Zrotation Xrotation Yrotation
                                        End Site
                                        {
                                            OFFSET   2.273050   0.000000   0.000000
                                        }
                                    }
                                }
                            }
                            JOINT LeftFinger4
                            {
                                OFFSET   7.435090   0.000000  -3.252850
                                CHANNELS 3 Zrotation Xrotation Yrotation
                                JOINT LeftFinger41
                                {
                                    OFFSET   3.717550   0.000000   0.000000
                                    CHANNELS 3 Zrotation Xrotation Yrotation
                                    JOINT LeftFinger42
                                    {
                                        OFFSET   1.858760   0.000000   0.000000
                                        CHANNELS 3 Zrotation Xrotation Yrotation
                                        End Site
                                        {
                                            OFFSET   1.818440   0.000000   0.000000
                                        }
                                    }
                                }
                            }
                        }
                    }
                }
            }
            JOINT RightCollar
            {
                OFFSET  -3.911900  19.017000  -0.467062
                CHANNELS 3 Zrotation Xrotation Yrotation
                JOINT RightShoulder
                {
                    OFFSET -10.383700   0.000015   0.000000
                    CHANNELS 3 Zrotation Xrotation Yrotation
                    JOINT RightElbow
                    {
                        OFFSET -26.662100   0.001341   0.000385
                        CHANNELS 3 Zrotation Xrotation Yrotation
                        JOINT RightWrist
                        {
                            OFFSET -28.869000   0.000025  -0.000080
                            CHANNELS 3 Zrotation Xrotation Yrotation
                            JOINT RightFinger0
                            {
                                OFFSET  -2.044650  -2.323490   3.252850
                                CHANNELS 3 Zrotation Xrotation Yrotation
                                JOINT RightFinger01
                                {
                                    OFFSET  -3.088130   0.000000   0.000000
                                    CHANNELS 3 Zrotation Xrotation Yrotation
                                    JOINT RightFinger02
                                    {
                                        OFFSET  -2.639460   0.000000   0.000000
                                        CHANNELS 3 Zrotation Xrotation Yrotation
                                        End Site
                                        {
                                            OFFSET  -2.582190   0.000000   0.000000
                                        }
                                    }
                                }
                            }
                            JOINT RightFinger1
                            {
                                OFFSET  -8.364480   0.000000   3.252850
                                CHANNELS 3 Zrotation Xrotation Yrotation
                                JOINT RightFinger11
                                {
                                    OFFSET  -4.646930   0.000000   0.000000
                                    CHANNELS 3 Zrotation Xrotation Yrotation
                                    JOINT RightFinger12
                                    {
                                        OFFSET  -2.323470   0.000000   0.000000
                                        CHANNELS 3 Zrotation Xrotation Yrotation
                                        End Site
                                        {
                                            OFFSET  -2.273050   0.000000   0.000000
                                        }
                                    }
                                }
                            }
                            JOINT RightFinger2
                            {
                                OFFSET  -8.364480   0.000000   1.078090
                                CHANNELS 3 Zrotation Xrotation Yrotation
                                JOINT RightFinger21
                                {
                                    OFFSET  -5.111610   0.000000   0.000000
                                    CHANNELS 3 Zrotation Xrotation Yrotation
                                    JOINT RightFinger22
                                    {
                                        OFFSET  -2.788160   0.000000   0.000000
                                        CHANNELS 3 Zrotation Xrotation Yrotation
                                        End Site
                                        {
                                            OFFSET  -2.727660   0.000000   0.000000
                                        }
                                    }
                                }
                            }
                            JOINT RightFinger3
                            {
                                OFFSET  -7.899780   0.000000  -1.078090
                                CHANNELS 3 Zrotation Xrotation Yrotation
                                JOINT RightFinger31
                                {
                                    OFFSET  -4.646920   0.000000   0.000000
                                    CHANNELS 3 Zrotation Xrotation Yrotation
                                    JOINT RightFinger32
                                    {
                                        OFFSET  -2.323470   0.000000   0.000000
                                        CHANNELS 3 Zrotation Xrotation Yrotation
                                        End Site
                                        {
                                            OFFSET  -2.273050   0.000000   0.000000
                                        }
                                    }
                                }
                            }
                            JOINT RightFinger4
                            {
                                OFFSET  -7.435090   0.000000  -3.252850
                                CHANNELS 3 Zrotation Xrotation Yrotation
                                JOINT RightFinger41
                                {
                                    OFFSET  -3.717550   0.000000   0.000000
                                    CHANNELS 3 Zrotation Xrotation Yrotation
                                    JOINT RightFinger42
                                    {
                                        OFFSET  -1.858770   0.000000   0.000000
                                        CHANNELS 3 Zrotation Xrotation Yrotation
                                        End Site
                                        {
                                            OFFSET  -1.818440   0.000000   0.000000
                                        }
                                    }
                                }
                            }
                        }
                    }
                }
            }
        }
    }
    JOINT LeftHip
    {
        OFFSET   9.783010   0.000000   0.000000
        CHANNELS 3 Zrotation Xrotation Yrotation
        JOINT LeftKnee
        {
            OFFSET   0.000070 -41.789100   0.000028
            CHANNELS 3 Zrotation Xrotation Yrotation
            JOINT LeftAnkle
            {
                OFFSET   0.000087 -41.133200  -0.000100
                CHANNELS 3 Zrotation Xrotation Yrotation
                JOINT LeftToe
                {
                    OFFSET   0.000000  -6.358960  14.674500
                    CHANNELS 3 Zrotation Xrotation Yrotation
                    End Site
                    {
                        OFFSET   0.000000   0.000000   3.913200
                    }
                }
            }
        }
    }
    JOINT RightHip
    {
        OFFSET  -9.783020   0.000000   0.000000
        CHANNELS 3 Zrotation Xrotation Yrotation
        JOINT RightKnee
        {
            OFFSET   0.000044 -41.789100  -0.000870
            CHANNELS 3 Zrotation Xrotation Yrotation
            JOINT RightAnkle
            {
                OFFSET  -0.000090 -41.133200  -0.000245
                CHANNELS 3 Zrotation Xrotation Yrotation
                JOINT RightToe
                {
                    OFFSET   0.000000  -6.358960  14.674500
                    CHANNELS 3 Zrotation Xrotation Yrotation
                    End Site
                    {
                        OFFSET   0.000000   0.000000   3.913200
                    }
                }
            }
        }
    }
}
MOTION
Frames: 4
Frame Time:   0.016667
 -0.053747  89.497900   0.184342  -0.455943 -13.773000  -1.272800  -0.127874  15.789900  -0.204721  -0.206924  31.580400  -0.395120   0.882353  -9.013340   0.136123   1.553670 -18.263600   9.384300 -12.401900 -16.268400   2.065650 -38.459100  18.417400 -80.595000  -4.359400 -22.423900 -18.635400 -10.193400 -76.342800   1.927730  40.558300  20.717100 -51.203700 -20.218400   0.003716   0.001352  -5.109180   0.001562   0.000969 -12.614100  -2.629840  11.586800 -10.538900   0.001337  -0.003722  -7.377230   0.002472  -0.002960 -18.670200  -3.851910  11.244100 -19.049500   0.009133  -0.000939 -12.687000   0.008902  -0.003252 -17.442600  -3.839630  12.031200 -17.847300   0.003126  -0.002160 -11.886300   0.003717  -0.007284 -18.366000  -7.663000  21.882900 -29.774400   0.001475   0.003479 -19.829800   0.007327  -0.009730   3.562420 -11.100600  16.858600  62.458400   9.599940  71.098000  -4.435850 -20.729500  27.404600 -54.991500 -66.983000 -58.570900 -48.323200  29.878800  61.020900  11.583100  -0.007347   0.001595   0.791534   0.002735  -0.004367  24.055400  -3.627130  -8.066790  19.890900   0.002898   0.000617  13.923600   0.003005   0.000195  26.840700  -4.328900  -8.483990  27.666300  -0.002700  -0.003558  18.425800  -0.002278   0.006440  27.725000  -4.459900  -8.416180  32.350000  -0.007083  -0.005826  21.545100   0.007184  -0.000581  25.898900  -6.231340 -12.603000  39.881400  -0.005372   0.011522  26.561000   0.005000  -0.003982   2.234790  15.208700   1.384580   0.500488   0.451223  11.960900  -3.648090  -1.389170   1.028700  -0.000000   0.000000   0.000000  -1.705550  14.071200  -6.225420  -0.118410   1.758990 -10.373400   0.488589  -0.817440   1.322110   0.000000   0.000000   0.000000
 -0.033326  89.495700   0.192701  -0.462188 -13.735600  -1.267770  -0.130243  15.771500  -0.206355  -0.211642  31.543600  -0.397800   0.861853  -9.002690   0.134015   1.517660 -18.242700   9.364110 -12.396900 -16.272600   2.107960 -38.556600  18.410800 -80.663100  -4.411500 -22.385900 -18.632900  -9.934700 -76.443100   2.168280  40.549400  20.748400 -51.258400 -20.243700   0.003865   0.001393  -5.121850   0.001564   0.000969 -12.693700  -2.641920  11.564300 -10.604600   0.001292  -0.003743  -7.423190   0.002482  -0.002938 -18.713600  -3.855330  11.224800 -19.092500   0.009102  -0.000989 -12.715600   0.008938  -0.003337 -17.485700  -3.846970  12.022800 -17.890900   0.003113  -0.002185 -11.915300   0.003758  -0.007291 -18.445300  -7.716840  21.932500 -29.914500   0.001494   0.003437 -19.923100   0.007482  -0.009873   3.614040 -11.092100  16.884900  62.301000   9.517920  71.072700  -4.466410 -20.617900  27.384600 -54.332100 -67.309300 -58.016900 -48.376800  29.917200  60.999000  11.563700  -0.008858   0.001945   0.781825   0.002731  -0.004346  23.827800  -3.596830  -8.060550  19.695200   0.002980   0.000595  13.786700   0.003097   0.000284  26.787000  -4.327690  -8.512370  27.441900  -0.002795  -0.003487  18.276400  -0.002349   0.006589  27.673200  -4.464310  -8.445150  32.021800  -0.007395  -0.006058  21.326500   0.007195  -0.000555  25.717400  -6.163620 -12.560200  39.612100  -0.005414   0.011684  26.381600   0.005014  -0.003987   2.239020  15.195500   1.379800   0.504353   0.423856  11.963100  -3.651580  -1.370210   1.035010  -0.000000   0.000000  -0.000000  -1.762140  14.016800  -6.258060  -0.050741   1.801720 -10.358900   0.477402  -0.827514   1.346870   0.000000   0.000000  -0.000000
 -0.014053  89.493200   0.203850  -0.468307 -13.695600  -1.260590  -0.130949  15.747200  -0.207149  -0.212823  31.495000  -0.399295   0.840173  -8.977420   0.131130   1.478790 -18.192100   9.341840 -12.384400 -16.278700   2.166190 -38.661800  18.417000 -80.695800  -4.475020 -22.319300 -18.643400  -9.520660 -76.526800   2.572420  40.533800  20.823200 -51.353100 -20.320100   0.004007   0.001473  -5.160030   0.001566   0.000969 -12.850800  -2.665130  11.519600 -10.734200   0.001247  -0.003760  -7.513960   0.002492  -0.002924 -18.844100  -3.867010  11.177800 -19.222600   0.009074  -0.001042 -12.802300   0.008977  -0.003426 -17.595700  -3.865560  12.001400 -18.002100   0.003100  -0.002217 -11.989400   0.003800  -0.007300 -18.588200  -7.793810  21.961700 -30.154100   0.001512   0.003387 -20.082600   0.007630  -0.010006   3.676930 -11.077400  16.911000  62.094700   9.422890  71.028700  -4.497360 -20.477700  27.369400 -53.651200 -67.665800 -57.416100 -48.469800  29.964700  61.004000  11.529600  -0.010297   0.002258   0.764799   0.002726  -0.004325  23.686900  -3.542700  -8.018350  19.585800   0.003061   0.000583  13.710100   0.003185   0.000379  26.757700  -4.325830  -8.527770  27.319800  -0.002891  -0.003414  18.195000  -0.002423   0.006732  27.630600  -4.466140  -8.461200  31.753400  -0.007671  -0.006261  21.147700   0.007200  -0.000532  25.636000  -6.060090 -12.397900  39.451800  -0.005451   0.011772  26.274900   0.005031  -0.003992   2.245160  15.183000   1.373990   0.507116   0.392148  11.967300  -3.655610  -1.348580   1.037000  -0.000000   0.000000  -0.000000  -1.811640  13.964800  -6.292010   0.010086   1.839750 -10.351600   0.466657  -0.837122   1.377750   0.000000   0.000000   0.000000
  0.001555  89.491000   0.219448  -0.474158 -13.646400  -1.249010  -0.130391  15.718200  -0.208554  -0.211276  31.437000  -0.402193   0.819113  -8.939910   0.127446   1.441010 -18.116500   9.325880 -12.367300 -16.282400   2.222310 -38.825900  18.436600 -80.639700  -4.571430 -22.193400 -18.749300  -9.162130 -76.563900   2.927760  40.504200  20.981400 -51.545800 -20.463400   0.004123   0.001573  -5.231710   0.001564   0.000966 -13.103700  -2.702360  11.447700 -10.942800   0.001202  -0.003762  -7.659940   0.002506  -0.002930 -19.066900  -3.890150  11.104400 -19.445100   0.009047  -0.001103 -12.950500   0.009017  -0.003515 -17.766800  -3.894310  11.967900 -18.175100   0.003092  -0.002257 -12.104600   0.003845  -0.007314 -18.838200  -7.906940  21.958600 -30.561600   0.001531   0.003319 -20.354000   0.007768  -0.010122   3.761000 -11.059100  16.929000  61.878100   9.351870  70.931000  -4.535380 -20.293200  27.386600 -52.970000 -68.058400 -56.743500 -48.751600  30.337100  61.459300  11.475400  -0.011923   0.002516   0.737697   0.002733  -0.004301  23.688700  -3.418050  -7.771390  19.585800   0.003141   0.000586  13.710100   0.003266   0.000464  26.786800  -4.324010  -8.512130  27.441300  -0.002992  -0.003345  18.275900  -0.002498   0.006874  27.620800  -4.458630  -8.448430  31.678000  -0.007905  -0.006447  21.097500   0.007201  -0.000507  25.777600  -5.879520 -11.969100  39.591500  -0.005481   0.011268  26.367900   0.005055  -0.003990   2.255440  15.157500   1.367780   0.505886   0.373261  11.973000  -3.659670  -1.341980   1.030580   0.000000   0.000000   0.000000  -1.843380  13.918800  -6.322650   0.057232   1.855530 -10.367100   0.448730  -0.839678   1.418650  -0.000000   0.000000   0.000000
